<svg height="512pt" viewBox="-33 0 512 512.0005" width="512pt" xmlns="http://www.w3.org/2000/svg"><path d="m196.542969 256.320312-63.25 10.53125c-21.910157 3.648438-44.40625-.429687-63.644531-11.535156-22.953126-13.253906-39.394532-35.421875-45.410157-61.234375l-14.234375-61.082031 60.015625-18.210938c25.363281-7.695312 52.78125-4.542968 75.734375 8.707032 19.234375 11.109375 34.015625 28.554687 41.8125 49.355468l22.503906 60.039063h25.953126l22.5-60.039063c7.796874-20.800781 22.578124-38.246093 41.816406-49.355468 22.953125-13.25 50.367187-16.402344 75.730468-8.707032l60.015626 18.210938-14.234376 61.082031c-6.019531 25.8125-22.457031 47.980469-45.410156 61.234375-19.238281 11.105469-41.734375 15.183594-63.648437 11.535156l-63.246094-10.53125-12.976563 22.472657 40.746094 49.507812c14.113282 17.152344 21.832032 38.675781 21.832032 60.890625 0 26.503906-10.976563 51.820313-30.324219 69.9375l-45.78125 42.871094-45.777344-42.871094c-19.347656-18.117187-30.324219-43.433594-30.324219-69.9375 0-22.214844 7.714844-43.738281 21.832032-60.890625l40.746093-49.507812zm0 0" fill="#8481e2"/><path d="m249.546875 255.683594 63.246094-10.53125c21.914062-3.652344 44.410156.425781 63.648437 11.535156 22.953125 13.25 39.394532 35.417969 45.410156 61.230469l14.234376 61.082031-60.015626 18.210938c-25.363281 7.699218-52.78125 4.542968-75.734374-8.707032-19.234376-11.105468-34.015626-28.550781-41.8125-49.351562l-22.503907-60.042969h-25.953125l-22.5 60.042969c-7.796875 20.800781-22.578125 38.246094-41.816406 49.351562-22.953125 13.25-50.371094 16.40625-75.730469 8.707032l-60.015625-18.210938 14.234375-61.082031c6.015625-25.8125 22.457031-47.980469 45.410157-61.230469 19.238281-11.109375 41.734374-15.183594 63.648437-11.535156l63.246094 10.53125 12.976562-22.476563-40.746093-49.507812c-14.113282-17.152344-21.832032-38.675781-21.832032-60.886719 0-26.503906 10.976563-51.824219 30.324219-69.941406l45.777344-42.871094 45.78125 42.871094c19.347656 18.117187 30.324219 43.4375 30.324219 69.941406 0 22.210938-7.714844 43.734375-21.832032 60.886719l-40.746094 49.507812zm0 0" fill="#9593e6"/><path d="m243.972656 256c0 11.558594-9.367187 20.929688-20.929687 20.929688-11.558594 0-20.925781-9.371094-20.925781-20.929688s9.367187-20.929688 20.925781-20.929688c11.5625 0 20.929687 9.371094 20.929687 20.929688zm0 0" fill="#fff"/><path d="m431.589844 315.648438c-5.53125-23.734376-19.210938-44.84375-38.296875-59.648438 19.085937-14.804688 32.765625-35.914062 38.296875-59.648438l14.234375-61.082031c1.195312-5.132812-1.792969-10.308593-6.835938-11.839843l-60.015625-18.210938c-23.316406-7.078125-48.4375-5.785156-70.804687 3.339844-3.277344-23.929688-14.71875-46.332032-32.507813-62.984375l-45.78125-42.871094c-3.84375-3.605469-9.824218-3.605469-13.667968 0l-45.78125 42.871094c-17.789063 16.652343-29.230469 39.054687-32.511719 62.984375-9.964844-4.066406-20.570313-6.636719-31.265625-7.53125-5.496094-.476563-10.339844 3.628906-10.796875 9.132812-.460938 5.503906 3.625 10.335938 9.128906 10.796875 11.1875.933594 22.25 4.132813 32.242187 9.28125 1.546876 21.839844 9.855469 42.839844 23.824219 59.816407l29.203125 35.480468-9.429687-5.441406c-4.785157-2.761719-10.902344-1.125-13.660157 3.660156-2.761718 4.78125-1.125 10.898438 3.660157 13.660156l9.371093 5.410157-45.257812-7.535157c-21.683594-3.613281-44.027344-.308593-63.710938 9.269532-18.703124-12.011719-32.1875-31.019532-37.25-52.742188l-12.109374-51.964844 8.128906-2.46875c5.285156-1.601562 8.269531-7.1875 6.667968-12.472656-1.605468-5.285156-7.191406-8.261718-12.476562-6.664062l-17.089844 5.183594c-5.039062 1.53125-8.03125 6.710937-6.835937 11.839843l14.238281 61.082031c5.53125 23.734376 19.210938 44.84375 38.292969 59.648438-19.082031 14.804688-32.761719 35.914062-38.292969 59.648438l-14.234375 61.082031c-1.195313 5.132812 1.792969 10.308593 6.835937 11.839843l60.015626 18.210938c10 3.035156 20.332031 4.53125 30.636718 4.53125 13.722656 0 27.394532-2.660156 40.167969-7.871094 3.28125 23.929688 14.722656 46.332032 32.507813 62.984375l45.78125 42.871094c1.921874 1.804687 4.378906 2.703125 6.832031 2.703125 2.457031 0 4.914062-.898438 6.835937-2.699219l45.78125-42.871093c17.789063-16.65625 29.230469-39.058594 32.507813-62.984376 12.773437 5.210938 26.445312 7.867188 40.167969 7.867188 10.304687 0 20.636718-1.496094 30.636718-4.53125l60.019532-18.210938c5.039062-1.53125 8.03125-6.707031 6.835937-11.839843zm-58.425782-191.289063 51.058594 15.488281-12.109375 51.964844c-5.0625 21.722656-18.546875 40.734375-37.25 52.746094-19.683593-9.574219-42.023437-12.882813-63.710937-9.273438l-45.257813 7.539063 9.371094-5.414063c4.785156-2.761718 6.421875-8.875 3.660156-13.660156-2.761719-4.78125-8.875-6.417969-13.660156-3.660156l-9.429687 5.445312 29.203124-35.480468c13.972657-16.976563 22.28125-37.980469 23.828126-59.820313 19.746093-10.1875 42.953124-12.351563 64.296874-5.875zm-161.195312 138.039063s0 0-.003906 0c0-.003907 0-.003907-.003906-.007813-1.089844-1.882813-1.722657-4.0625-1.722657-6.390625 0-2.261719.59375-4.386719 1.628907-6.234375.03125-.050781.070312-.09375.097656-.144531.019531-.03125.03125-.066406.050781-.097656 2.203125-3.742188 6.246094-6.269532 10.882813-6.324219.050781.003906.097656.007812.144531.007812.050781 0 .097656-.007812.148437-.007812 4.636719.054687 8.679688 2.582031 10.882813 6.324219.019531.03125.03125.066406.050781.097656.027344.050781.066406.09375.097656.140625 1.035156 1.851562 1.628906 3.976562 1.628906 6.238281 0 2.332031-.632812 4.507812-1.722656 6.390625-.003906.003906-.003906.003906-.003906.007813-2.21875 3.824218-6.347656 6.410156-11.078125 6.410156s-8.863281-2.585938-11.078125-6.410156zm-55.027344-139.585938c0-23.648438 9.898438-46.476562 27.15625-62.640625l38.945313-36.472656 38.949219 36.472656c17.257812 16.164063 27.15625 38.992187 27.15625 62.640625 0 19.84375-6.945313 39.210938-19.554688 54.53125l-36.550781 44.410156v-20.277344c0-5.523437-4.476563-10-10-10-5.519531 0-10 4.476563-10 10v20.28125l-36.550781-44.410156c-12.605469-15.324218-19.550782-34.691406-19.550782-54.535156zm-84.019531 264.832031-51.054687-15.492187 12.109374-51.964844c5.367188-23.027344 20.191407-43.019531 40.671876-54.84375 17.183593-9.917969 37.429687-13.589844 57.003906-10.328125l56.734375 9.445313-17.5625 10.140624c-4.785157 2.761719-6.421875 8.878907-3.660157 13.660157 1.851563 3.207031 5.210938 5.003906 8.667969 5.003906 1.699219 0 3.417969-.433594 4.992188-1.34375l17.5625-10.140625-20.183594 53.859375c-6.964844 18.582031-20.265625 34.28125-37.453125 44.203125-20.476562 11.824219-45.195312 14.667969-67.828125 7.800781zm189.070313 64.1875-38.949219 36.46875-38.945313-36.46875c-16.28125-15.25-26.007812-36.429687-27.058594-58.628906 18.140626-12.257813 32.175782-29.953125 39.890626-50.542969l16.113281-42.992187v21.671875c0 5.523437 4.480469 10 10 10 5.523437 0 10-4.476563 10-10v-21.671875l16.117187 42.992187c7.714844 20.589844 21.75 38.285156 39.890625 50.542969-1.050781 22.199219-10.777343 43.378906-27.058593 58.628906zm111.171874-64.1875c-22.628906 6.867188-47.347656 4.023438-67.828124-7.800781-17.183594-9.921875-30.484376-25.621094-37.449219-44.203125l-20.183594-53.855469 17.5625 10.136719c1.574219.910156 3.292969 1.34375 4.988281 1.34375 3.457032 0 6.820313-1.792969 8.671875-5.003906 2.761719-4.78125 1.121094-10.894531-3.660156-13.660157l-17.5625-10.136718 56.734375-9.449219c19.570312-3.261719 39.816406.40625 57.007812 10.332031 20.476563 11.824219 35.300782 31.8125 40.667969 54.839844l12.109375 51.964844zm0 0"/><path d="m222.914062 351.339844c-2.628906 0-5.210937 1.070312-7.070312 2.929687s-2.929688 4.441407-2.929688 7.070313 1.070313 5.210937 2.929688 7.070312c1.871094 1.859375 4.441406 2.929688 7.070312 2.929688 2.628907 0 5.210938-1.070313 7.070313-2.929688 1.871094-1.859375 2.929687-4.441406 2.929687-7.070312s-1.058593-5.210938-2.929687-7.070313c-1.859375-1.859375-4.429687-2.929687-7.070313-2.929687zm0 0"/><path d="m65.324219 126.210938c2.628906 0 5.210937-1.0625 7.070312-2.929688 1.859375-1.859375 2.929688-4.441406 2.929688-7.070312 0-2.628907-1.070313-5.210938-2.929688-7.070313s-4.441406-2.929687-7.070312-2.929687c-2.628907 0-5.210938 1.070312-7.070313 2.929687s-2.929687 4.441406-2.929687 7.070313c0 2.628906 1.070312 5.210937 2.929687 7.070312 1.859375 1.867188 4.441406 2.929688 7.070313 2.929688zm0 0"/></svg>