<?xml version="1.0" standalone="no"?>
<!DOCTYPE svg PUBLIC "-//W3C//DTD SVG 1.1//EN"
"http://www.w3.org/Graphics/SVG/1.1/DTD/svg11.dtd">

<svg width="638" height="789" view_box="0 0 638 789"
xmlns="http://www.w3.org/2000/svg"
xmlns:link="http://www.w3.org/1999/xlink">\n\n<desc>Généré par Mocodo 2.3.7 le Tue, 11 Jun 2019 12:24:13</desc>

<rect id="frame" x="0" y="0" width="638" height="789" fill="#f7f7f7" stroke="none" stroke-width="0"/>

<!-- Association CIF6 -->
<line x1="383" y1="357" x2="489" y2="357" stroke="#de77ae" stroke-width="2"/>
<text x="440" y="374.0" fill="#4d9221" font-family="Verdana" font-size="12">1,1</text>
<line x1="489" y1="552" x2="489" y2="357" stroke="#de77ae" stroke-width="2"/>
<text x="494.0" y="493" fill="#4d9221" font-family="Verdana" font-size="12">0,N</text>
<g id="association-CIF6">
	<path d="M 493 332 a 14 14 90 0 1 14 14 V 357 h -36 V 346 a 14 14 90 0 1 14 -14" fill="#f1b6da" stroke="#f1b6da" stroke-width="0"/>
	<path d="M 507 357.0 v 11 a 14 14 90 0 1 -14 14 H 485 a 14 14 90 0 1 -14 -14 V 357.0 H 36" fill="#fde0ef" stroke="#fde0ef" stroke-width="0"/>
	<rect x="471" y="332" width="36" height="50" fill="none" rx="14" stroke="#de77ae" stroke-width="2"/>
	<line x1="471" y1="357" x2="507" y2="357" stroke="#de77ae" stroke-width="1"/>
	<text x="478" y="349.7" fill="#000000" font-family="Verdana" font-size="12">CIF</text>
</g>

<!-- Association CIF7 -->
<line x1="171" y1="357" x2="171" y2="111" stroke="#de77ae" stroke-width="2"/>
<text x="176.0" y="239" fill="#4d9221" font-family="Verdana" font-size="12">1,1</text>
<line x1="281" y1="111" x2="171" y2="111" stroke="#de77ae" stroke-width="2"/>
<text x="220" y="128.0" fill="#4d9221" font-family="Verdana" font-size="12">0,N</text>
<g id="association-CIF7">
	<path d="M 175 86 a 14 14 90 0 1 14 14 V 111 h -36 V 100 a 14 14 90 0 1 14 -14" fill="#f1b6da" stroke="#f1b6da" stroke-width="0"/>
	<path d="M 189 111.0 v 11 a 14 14 90 0 1 -14 14 H 167 a 14 14 90 0 1 -14 -14 V 111.0 H 36" fill="#fde0ef" stroke="#fde0ef" stroke-width="0"/>
	<rect x="153" y="86" width="36" height="50" fill="none" rx="14" stroke="#de77ae" stroke-width="2"/>
	<line x1="153" y1="111" x2="189" y2="111" stroke="#de77ae" stroke-width="1"/>
	<text x="160" y="103.7" fill="#000000" font-family="Verdana" font-size="12">CIF</text>
</g>

<!-- Association CIF4 -->
<line x1="171" y1="704" x2="61" y2="704" stroke="#de77ae" stroke-width="2"/>
<text x="116" y="721.0" fill="#4d9221" font-family="Verdana" font-size="12">0,N</text>
<line x1="61" y1="552" x2="61" y2="704" stroke="#de77ae" stroke-width="2"/>
<text x="66.0" y="628" fill="#4d9221" font-family="Verdana" font-size="12">1,1</text>
<g id="association-CIF4">
	<path d="M 65 679 a 14 14 90 0 1 14 14 V 704 h -36 V 693 a 14 14 90 0 1 14 -14" fill="#f1b6da" stroke="#f1b6da" stroke-width="0"/>
	<path d="M 79 704.0 v 11 a 14 14 90 0 1 -14 14 H 57 a 14 14 90 0 1 -14 -14 V 704.0 H 36" fill="#fde0ef" stroke="#fde0ef" stroke-width="0"/>
	<rect x="43" y="679" width="36" height="50" fill="none" rx="14" stroke="#de77ae" stroke-width="2"/>
	<line x1="43" y1="704" x2="79" y2="704" stroke="#de77ae" stroke-width="1"/>
	<text x="50" y="696.7" fill="#000000" font-family="Verdana" font-size="12">CIF</text>
</g>

<!-- Association CIF5 -->
<line x1="383" y1="357" x2="281" y2="357" stroke="#de77ae" stroke-width="2"/>
<text x="305" y="374.0" fill="#4d9221" font-family="Verdana" font-size="12">1,1</text>
<line x1="171" y1="357" x2="281" y2="357" stroke="#de77ae" stroke-width="2"/>
<text x="236" y="349.0" fill="#4d9221" font-family="Verdana" font-size="12">0,N</text>
<g id="association-CIF5">
	<path d="M 285 332 a 14 14 90 0 1 14 14 V 357 h -36 V 346 a 14 14 90 0 1 14 -14" fill="#f1b6da" stroke="#f1b6da" stroke-width="0"/>
	<path d="M 299 357.0 v 11 a 14 14 90 0 1 -14 14 H 277 a 14 14 90 0 1 -14 -14 V 357.0 H 36" fill="#fde0ef" stroke="#fde0ef" stroke-width="0"/>
	<rect x="263" y="332" width="36" height="50" fill="none" rx="14" stroke="#de77ae" stroke-width="2"/>
	<line x1="263" y1="357" x2="299" y2="357" stroke="#de77ae" stroke-width="1"/>
	<text x="270" y="349.7" fill="#000000" font-family="Verdana" font-size="12">CIF</text>
</g>

<!-- Association CIF2 -->
<line x1="383" y1="704" x2="383" y2="552" stroke="#de77ae" stroke-width="2"/>
<text x="388.0" y="620" fill="#4d9221" font-family="Verdana" font-size="12">1,1</text>
<line x1="489" y1="552" x2="383" y2="552" stroke="#de77ae" stroke-width="2"/>
<text x="426" y="569.0" fill="#4d9221" font-family="Verdana" font-size="12">0,N</text>
<g id="association-CIF2">
	<path d="M 387 527 a 14 14 90 0 1 14 14 V 552 h -36 V 541 a 14 14 90 0 1 14 -14" fill="#f1b6da" stroke="#f1b6da" stroke-width="0"/>
	<path d="M 401 552.0 v 11 a 14 14 90 0 1 -14 14 H 379 a 14 14 90 0 1 -14 -14 V 552.0 H 36" fill="#fde0ef" stroke="#fde0ef" stroke-width="0"/>
	<rect x="365" y="527" width="36" height="50" fill="none" rx="14" stroke="#de77ae" stroke-width="2"/>
	<line x1="365" y1="552" x2="401" y2="552" stroke="#de77ae" stroke-width="1"/>
	<text x="372" y="544.7" fill="#000000" font-family="Verdana" font-size="12">CIF</text>
</g>

<!-- Association CIF3 -->
<line x1="171" y1="357" x2="61" y2="357" stroke="#de77ae" stroke-width="2"/>
<text x="85" y="374.0" fill="#4d9221" font-family="Verdana" font-size="12">1,1</text>
<line x1="61" y1="111" x2="61" y2="357" stroke="#de77ae" stroke-width="2"/>
<text x="66.0" y="179" fill="#4d9221" font-family="Verdana" font-size="12">0,N</text>
<g id="association-CIF3">
	<path d="M 65 332 a 14 14 90 0 1 14 14 V 357 h -36 V 346 a 14 14 90 0 1 14 -14" fill="#f1b6da" stroke="#f1b6da" stroke-width="0"/>
	<path d="M 79 357.0 v 11 a 14 14 90 0 1 -14 14 H 57 a 14 14 90 0 1 -14 -14 V 357.0 H 36" fill="#fde0ef" stroke="#fde0ef" stroke-width="0"/>
	<rect x="43" y="332" width="36" height="50" fill="none" rx="14" stroke="#de77ae" stroke-width="2"/>
	<line x1="43" y1="357" x2="79" y2="357" stroke="#de77ae" stroke-width="1"/>
	<text x="50" y="349.7" fill="#000000" font-family="Verdana" font-size="12">CIF</text>
</g>

<!-- Association CIF1 -->
<path d="M383 704 C 370.757892852 614.560781505 336.757892852 563.894114838 281 552" fill="none" stroke="#de77ae" stroke-width="2"/>
<text x="330.139580605" y="620" fill="#4d9221" font-family="Verdana" font-size="12">1,1</text>
<line x1="171" y1="357" x2="281" y2="552" stroke="#de77ae" stroke-width="2"/>
<text x="236" y="459.750079731" fill="#4d9221" font-family="Verdana" font-size="12">0,N</text>
<g id="association-CIF1">
	<path d="M 285 527 a 14 14 90 0 1 14 14 V 552 h -36 V 541 a 14 14 90 0 1 14 -14" fill="#f1b6da" stroke="#f1b6da" stroke-width="0"/>
	<path d="M 299 552.0 v 11 a 14 14 90 0 1 -14 14 H 277 a 14 14 90 0 1 -14 -14 V 552.0 H 36" fill="#fde0ef" stroke="#fde0ef" stroke-width="0"/>
	<rect x="263" y="527" width="36" height="50" fill="none" rx="14" stroke="#de77ae" stroke-width="2"/>
	<line x1="263" y1="552" x2="299" y2="552" stroke="#de77ae" stroke-width="1"/>
	<text x="270" y="544.7" fill="#000000" font-family="Verdana" font-size="12">CIF</text>
</g>

<!-- Association CIF8 -->
<line x1="489" y1="111" x2="383" y2="111" stroke="#de77ae" stroke-width="2"/>
<text x="419" y="128.0" fill="#4d9221" font-family="Verdana" font-size="12">1,1</text>
<line x1="383" y1="357" x2="383" y2="111" stroke="#de77ae" stroke-width="2"/>
<text x="388.0" y="230" fill="#4d9221" font-family="Verdana" font-size="12">0,N</text>
<g id="association-CIF8">
	<path d="M 387 86 a 14 14 90 0 1 14 14 V 111 h -36 V 100 a 14 14 90 0 1 14 -14" fill="#f1b6da" stroke="#f1b6da" stroke-width="0"/>
	<path d="M 401 111.0 v 11 a 14 14 90 0 1 -14 14 H 379 a 14 14 90 0 1 -14 -14 V 111.0 H 36" fill="#fde0ef" stroke="#fde0ef" stroke-width="0"/>
	<rect x="365" y="86" width="36" height="50" fill="none" rx="14" stroke="#de77ae" stroke-width="2"/>
	<line x1="365" y1="111" x2="401" y2="111" stroke="#de77ae" stroke-width="1"/>
	<text x="372" y="103.7" fill="#000000" font-family="Verdana" font-size="12">CIF</text>
</g>

<!-- Association CIF9 -->
<line x1="61" y1="552" x2="171" y2="552" stroke="#de77ae" stroke-width="2"/>
<text x="118" y="569.0" fill="#4d9221" font-family="Verdana" font-size="12">1,1</text>
<line x1="171" y1="357" x2="171" y2="552" stroke="#de77ae" stroke-width="2"/>
<text x="144.0" y="484" fill="#4d9221" font-family="Verdana" font-size="12">0,N</text>
<g id="association-CIF9">
	<path d="M 175 527 a 14 14 90 0 1 14 14 V 552 h -36 V 541 a 14 14 90 0 1 14 -14" fill="#f1b6da" stroke="#f1b6da" stroke-width="0"/>
	<path d="M 189 552.0 v 11 a 14 14 90 0 1 -14 14 H 167 a 14 14 90 0 1 -14 -14 V 552.0 H 36" fill="#fde0ef" stroke="#fde0ef" stroke-width="0"/>
	<rect x="153" y="527" width="36" height="50" fill="none" rx="14" stroke="#de77ae" stroke-width="2"/>
	<line x1="153" y1="552" x2="189" y2="552" stroke="#de77ae" stroke-width="1"/>
	<text x="160" y="544.7" fill="#000000" font-family="Verdana" font-size="12">CIF</text>
</g>

<!-- Association CIF10 -->
<line x1="586" y1="704" x2="489" y2="704" stroke="#de77ae" stroke-width="2"/>
<text x="517" y="721.0" fill="#4d9221" font-family="Verdana" font-size="12">1,1</text>
<line x1="383" y1="704" x2="489" y2="704" stroke="#de77ae" stroke-width="2"/>
<text x="440" y="721.0" fill="#4d9221" font-family="Verdana" font-size="12">0,N</text>
<g id="association-CIF10">
	<path d="M 497 679 a 14 14 90 0 1 14 14 V 704 h -44 V 693 a 14 14 90 0 1 14 -14" fill="#f1b6da" stroke="#f1b6da" stroke-width="0"/>
	<path d="M 511 704.0 v 11 a 14 14 90 0 1 -14 14 H 481 a 14 14 90 0 1 -14 -14 V 704.0 H 44" fill="#fde0ef" stroke="#fde0ef" stroke-width="0"/>
	<rect x="467" y="679" width="44" height="50" fill="none" rx="14" stroke="#de77ae" stroke-width="2"/>
	<line x1="467" y1="704" x2="511" y2="704" stroke="#de77ae" stroke-width="1"/>
	<text x="474" y="696.7" fill="#000000" font-family="Verdana" font-size="12">CIF1</text>
</g>

<!-- Association CIF11 -->
<line x1="489" y1="552" x2="586" y2="552" stroke="#de77ae" stroke-width="2"/>
<text x="530" y="569.0" fill="#4d9221" font-family="Verdana" font-size="12">0,N</text>
<line x1="586" y1="704" x2="586" y2="552" stroke="#de77ae" stroke-width="2"/>
<text x="591.0" y="645" fill="#4d9221" font-family="Verdana" font-size="12">1,1</text>
<g id="association-CIF11">
	<path d="M 594 527 a 14 14 90 0 1 14 14 V 552 h -44 V 541 a 14 14 90 0 1 14 -14" fill="#f1b6da" stroke="#f1b6da" stroke-width="0"/>
	<path d="M 608 552.0 v 11 a 14 14 90 0 1 -14 14 H 578 a 14 14 90 0 1 -14 -14 V 552.0 H 44" fill="#fde0ef" stroke="#fde0ef" stroke-width="0"/>
	<rect x="564" y="527" width="44" height="50" fill="none" rx="14" stroke="#de77ae" stroke-width="2"/>
	<line x1="564" y1="552" x2="608" y2="552" stroke="#de77ae" stroke-width="1"/>
	<text x="571" y="544.7" fill="#000000" font-family="Verdana" font-size="12">CIF1</text>
</g>

<!-- Association CIF -->
<path d="M383 704 C 327.0 737.333333333 293.0 737.333333333 281 704" fill="none" stroke="#de77ae" stroke-width="2"/>
<text x="305" y="718.0" fill="#4d9221" font-family="Verdana" font-size="12">0,1</text>
<path d="M383 704 C 326.333333333 670.666666667 292.333333333 670.666666667 281 704" fill="none" stroke="#de77ae" stroke-width="2"/>
<text x="304" y="699.0" fill="#4d9221" font-family="Verdana" font-size="12">0,N</text>
<g id="association-CIF">
	<path d="M 285 679 a 14 14 90 0 1 14 14 V 704 h -36 V 693 a 14 14 90 0 1 14 -14" fill="#f1b6da" stroke="#f1b6da" stroke-width="0"/>
	<path d="M 299 704.0 v 11 a 14 14 90 0 1 -14 14 H 277 a 14 14 90 0 1 -14 -14 V 704.0 H 36" fill="#fde0ef" stroke="#fde0ef" stroke-width="0"/>
	<rect x="263" y="679" width="36" height="50" fill="none" rx="14" stroke="#de77ae" stroke-width="2"/>
	<line x1="263" y1="704" x2="299" y2="704" stroke="#de77ae" stroke-width="1"/>
	<text x="270" y="696.7" fill="#000000" font-family="Verdana" font-size="12">CIF</text>
</g>

<!-- Entity PLANTS -->
<g id="entity-PLANTS">
	<g id="frame-PLANTS">
		<rect x="331" y="238" width="104" height="25" fill="#b8e186" stroke="#b8e186" stroke-width="0"/>
		<rect x="331" y="263.0" width="104" height="213" fill="#e6f5d0" stroke="#e6f5d0" stroke-width="0"/>
		<rect x="331" y="238" width="104" height="238" fill="none" stroke="#7fbc41" stroke-width="2"/>
		<line x1="331" y1="263" x2="435" y2="263" stroke="#7fbc41" stroke-width="1"/>
	</g>
	<text x="359" y="255.7" fill="#000000" font-family="Verdana" font-size="12">PLANTS</text>
	<text x="336" y="280.7" fill="#000000" font-family="Verdana" font-size="12">plant_id</text>
	<line x1="336" y1="283" x2="386" y2="283" stroke="#000000" stroke-width="1"/>
	<text x="336" y="297.7" fill="#000000" font-family="Verdana" font-size="12">name</text>
	<text x="336" y="314.7" fill="#000000" font-family="Verdana" font-size="12">temperature</text>
	<text x="336" y="331.7" fill="#000000" font-family="Verdana" font-size="12">humidity</text>
	<text x="336" y="348.7" fill="#000000" font-family="Verdana" font-size="12">light</text>
	<text x="336" y="365.8" fill="#000000" font-family="Verdana" font-size="12">planting_date</text>
	<text x="336" y="382.8" fill="#000000" font-family="Verdana" font-size="12">is_flowering</text>
	<text x="336" y="399.8" fill="#000000" font-family="Verdana" font-size="12">is_fruiting</text>
	<text x="336" y="416.8" fill="#000000" font-family="Verdana" font-size="12">is_harvested</text>
	<text x="336" y="433.8" fill="#000000" font-family="Verdana" font-size="12">is_trimmed</text>
	<text x="336" y="450.8" fill="#000000" font-family="Verdana" font-size="12">subcategory_id</text>
	<text x="336" y="467.8" fill="#000000" font-family="Verdana" font-size="12">user_id</text>
</g>

<!-- Entity VOTES -->
<g id="entity-VOTES">
	<g id="frame-VOTES">
		<rect x="543" y="653" width="86" height="25" fill="#b8e186" stroke="#b8e186" stroke-width="0"/>
		<rect x="543" y="678.0" width="86" height="77" fill="#e6f5d0" stroke="#e6f5d0" stroke-width="0"/>
		<rect x="543" y="653" width="86" height="102" fill="none" stroke="#7fbc41" stroke-width="2"/>
		<line x1="543" y1="678" x2="629" y2="678" stroke="#7fbc41" stroke-width="1"/>
	</g>
	<text x="565" y="670.7" fill="#000000" font-family="Verdana" font-size="12">VOTES</text>
	<text x="548" y="695.7" fill="#000000" font-family="Verdana" font-size="12">vote_id</text>
	<line x1="548" y1="698" x2="594" y2="698" stroke="#000000" stroke-width="1"/>
	<text x="548" y="712.8" fill="#000000" font-family="Verdana" font-size="12">type</text>
	<text x="548" y="729.8" fill="#000000" font-family="Verdana" font-size="12">comment_id</text>
	<text x="548" y="746.8" fill="#000000" font-family="Verdana" font-size="12">user_id</text>
</g>

<!-- Entity SUBCATEGORIES -->
<g id="entity-SUBCATEGORIES">
	<g id="frame-SUBCATEGORIES">
		<rect x="111" y="247" width="120" height="25" fill="#b8e186" stroke="#b8e186" stroke-width="0"/>
		<rect x="111" y="272.0" width="120" height="195" fill="#e6f5d0" stroke="#e6f5d0" stroke-width="0"/>
		<rect x="111" y="247" width="120" height="220" fill="none" stroke="#7fbc41" stroke-width="2"/>
		<line x1="111" y1="272" x2="231" y2="272" stroke="#7fbc41" stroke-width="1"/>
	</g>
	<text x="118" y="264.7" fill="#000000" font-family="Verdana" font-size="12">SUBCATEGORIES</text>
	<text x="116" y="289.7" fill="#000000" font-family="Verdana" font-size="12">subcategory_id</text>
	<line x1="116" y1="292" x2="209" y2="292" stroke="#000000" stroke-width="1"/>
	<text x="116" y="306.7" fill="#000000" font-family="Verdana" font-size="12">name</text>
	<text x="116" y="323.7" fill="#000000" font-family="Verdana" font-size="12">description</text>
	<text x="116" y="340.7" fill="#000000" font-family="Verdana" font-size="12">min_temperature</text>
	<text x="116" y="357.8" fill="#000000" font-family="Verdana" font-size="12">max_temperature</text>
	<text x="116" y="374.8" fill="#000000" font-family="Verdana" font-size="12">min_humidity</text>
	<text x="116" y="391.8" fill="#000000" font-family="Verdana" font-size="12">max_humidity</text>
	<text x="116" y="408.8" fill="#000000" font-family="Verdana" font-size="12">min_light</text>
	<text x="116" y="425.8" fill="#000000" font-family="Verdana" font-size="12">max_light</text>
	<text x="116" y="442.8" fill="#000000" font-family="Verdana" font-size="12">size_id</text>
	<text x="116" y="459.8" fill="#000000" font-family="Verdana" font-size="12">category_id</text>
</g>

<!-- Entity USERS -->
<g id="entity-USERS">
	<g id="frame-USERS">
		<rect x="453" y="501" width="72" height="25" fill="#b8e186" stroke="#b8e186" stroke-width="0"/>
		<rect x="453" y="526.0" width="72" height="77" fill="#e6f5d0" stroke="#e6f5d0" stroke-width="0"/>
		<rect x="453" y="501" width="72" height="102" fill="none" stroke="#7fbc41" stroke-width="2"/>
		<line x1="453" y1="526" x2="525" y2="526" stroke="#7fbc41" stroke-width="1"/>
	</g>
	<text x="468" y="518.7" fill="#000000" font-family="Verdana" font-size="12">USERS</text>
	<text x="458" y="543.7" fill="#000000" font-family="Verdana" font-size="12">user_id</text>
	<line x1="458" y1="546" x2="504" y2="546" stroke="#000000" stroke-width="1"/>
	<text x="458" y="560.8" fill="#000000" font-family="Verdana" font-size="12">username</text>
	<text x="458" y="577.8" fill="#000000" font-family="Verdana" font-size="12">mail</text>
	<text x="458" y="594.8" fill="#000000" font-family="Verdana" font-size="12">password</text>
</g>

<!-- Entity SIZES -->
<g id="entity-SIZES">
	<g id="frame-SIZES">
		<rect x="247" y="60" width="68" height="25" fill="#b8e186" stroke="#b8e186" stroke-width="0"/>
		<rect x="247" y="85.0" width="68" height="77" fill="#e6f5d0" stroke="#e6f5d0" stroke-width="0"/>
		<rect x="247" y="60" width="68" height="102" fill="none" stroke="#7fbc41" stroke-width="2"/>
		<line x1="247" y1="85" x2="315" y2="85" stroke="#7fbc41" stroke-width="1"/>
	</g>
	<text x="262" y="77.7" fill="#000000" font-family="Verdana" font-size="12">SIZES</text>
	<text x="252" y="102.7" fill="#000000" font-family="Verdana" font-size="12">size_id</text>
	<line x1="252" y1="105" x2="294" y2="105" stroke="#000000" stroke-width="1"/>
	<text x="252" y="119.8" fill="#000000" font-family="Verdana" font-size="12">name</text>
	<text x="252" y="136.8" fill="#000000" font-family="Verdana" font-size="12">min_size</text>
	<text x="252" y="153.8" fill="#000000" font-family="Verdana" font-size="12">max_size</text>
</g>

<!-- Entity HISTORIES -->
<g id="entity-HISTORIES">
	<g id="frame-HISTORIES">
		<rect x="445" y="9" width="88" height="25" fill="#b8e186" stroke="#b8e186" stroke-width="0"/>
		<rect x="445" y="34.0" width="88" height="179" fill="#e6f5d0" stroke="#e6f5d0" stroke-width="0"/>
		<rect x="445" y="9" width="88" height="204" fill="none" stroke="#7fbc41" stroke-width="2"/>
		<line x1="445" y1="34" x2="533" y2="34" stroke="#7fbc41" stroke-width="1"/>
	</g>
	<text x="454" y="26.7" fill="#000000" font-family="Verdana" font-size="12">HISTORIES</text>
	<text x="450" y="51.7" fill="#000000" font-family="Verdana" font-size="12">history_id</text>
	<line x1="450" y1="54" x2="511" y2="54" stroke="#000000" stroke-width="1"/>
	<text x="450" y="68.7" fill="#000000" font-family="Verdana" font-size="12">datetime</text>
	<text x="450" y="85.7" fill="#000000" font-family="Verdana" font-size="12">temperature</text>
	<text x="450" y="102.7" fill="#000000" font-family="Verdana" font-size="12">humidity</text>
	<text x="450" y="119.8" fill="#000000" font-family="Verdana" font-size="12">light</text>
	<text x="450" y="136.8" fill="#000000" font-family="Verdana" font-size="12">is_flowering</text>
	<text x="450" y="153.8" fill="#000000" font-family="Verdana" font-size="12">is_fruiting</text>
	<text x="450" y="170.8" fill="#000000" font-family="Verdana" font-size="12">is_harvested</text>
	<text x="450" y="187.8" fill="#000000" font-family="Verdana" font-size="12">is_trimmed</text>
	<text x="450" y="204.8" fill="#000000" font-family="Verdana" font-size="12">plant_id</text>
</g>

<!-- Entity COMMENTS -->
<g id="entity-COMMENTS">
	<g id="frame-COMMENTS">
		<rect x="331" y="628" width="104" height="25" fill="#b8e186" stroke="#b8e186" stroke-width="0"/>
		<rect x="331" y="653.0" width="104" height="127" fill="#e6f5d0" stroke="#e6f5d0" stroke-width="0"/>
		<rect x="331" y="628" width="104" height="152" fill="none" stroke="#7fbc41" stroke-width="2"/>
		<line x1="331" y1="653" x2="435" y2="653" stroke="#7fbc41" stroke-width="1"/>
	</g>
	<text x="347" y="645.7" fill="#000000" font-family="Verdana" font-size="12">COMMENTS</text>
	<text x="336" y="670.7" fill="#000000" font-family="Verdana" font-size="12">comment_id</text>
	<line x1="336" y1="673" x2="412" y2="673" stroke="#000000" stroke-width="1"/>
	<text x="336" y="687.7" fill="#000000" font-family="Verdana" font-size="12">post_date</text>
	<text x="336" y="704.8" fill="#000000" font-family="Verdana" font-size="12">title</text>
	<text x="336" y="721.8" fill="#000000" font-family="Verdana" font-size="12">comment</text>
	<text x="336" y="738.8" fill="#000000" font-family="Verdana" font-size="12">answer_id</text>
	<text x="336" y="755.8" fill="#000000" font-family="Verdana" font-size="12">subcategory_id</text>
	<text x="336" y="772.8" fill="#000000" font-family="Verdana" font-size="12">user_id</text>
</g>

<!-- Entity PERIODS -->
<g id="entity-PERIODS">
	<g id="frame-PERIODS">
		<rect x="9" y="493" width="104" height="25" fill="#b8e186" stroke="#b8e186" stroke-width="0"/>
		<rect x="9" y="518.0" width="104" height="93" fill="#e6f5d0" stroke="#e6f5d0" stroke-width="0"/>
		<rect x="9" y="493" width="104" height="118" fill="none" stroke="#7fbc41" stroke-width="2"/>
		<line x1="9" y1="518" x2="113" y2="518" stroke="#7fbc41" stroke-width="1"/>
	</g>
	<text x="33" y="510.7" fill="#000000" font-family="Verdana" font-size="12">PERIODS</text>
	<text x="14" y="535.7" fill="#000000" font-family="Verdana" font-size="12">period_id</text>
	<line x1="14" y1="538" x2="71" y2="538" stroke="#000000" stroke-width="1"/>
	<text x="14" y="552.8" fill="#000000" font-family="Verdana" font-size="12">type_id</text>
	<text x="14" y="569.8" fill="#000000" font-family="Verdana" font-size="12">start</text>
	<text x="14" y="586.8" fill="#000000" font-family="Verdana" font-size="12">end</text>
	<text x="14" y="603.8" fill="#000000" font-family="Verdana" font-size="12">subcategory_id</text>
</g>

<!-- Entity TYPES -->
<g id="entity-TYPES">
	<g id="frame-TYPES">
		<rect x="143" y="670" width="56" height="25" fill="#b8e186" stroke="#b8e186" stroke-width="0"/>
		<rect x="143" y="695.0" width="56" height="43" fill="#e6f5d0" stroke="#e6f5d0" stroke-width="0"/>
		<rect x="143" y="670" width="56" height="68" fill="none" stroke="#7fbc41" stroke-width="2"/>
		<line x1="143" y1="695" x2="199" y2="695" stroke="#7fbc41" stroke-width="1"/>
	</g>
	<text x="151" y="687.7" fill="#000000" font-family="Verdana" font-size="12">TYPES</text>
	<text x="148" y="712.8" fill="#000000" font-family="Verdana" font-size="12">type_id</text>
	<line x1="148" y1="715" x2="194" y2="715" stroke="#000000" stroke-width="1"/>
	<text x="148" y="729.8" fill="#000000" font-family="Verdana" font-size="12">name</text>
</g>

<!-- Entity CATEGORIES -->
<g id="entity-CATEGORIES">
	<g id="frame-CATEGORIES">
		<rect x="15" y="60" width="92" height="25" fill="#b8e186" stroke="#b8e186" stroke-width="0"/>
		<rect x="15" y="85.0" width="92" height="77" fill="#e6f5d0" stroke="#e6f5d0" stroke-width="0"/>
		<rect x="15" y="60" width="92" height="102" fill="none" stroke="#7fbc41" stroke-width="2"/>
		<line x1="15" y1="85" x2="107" y2="85" stroke="#7fbc41" stroke-width="1"/>
	</g>
	<text x="20" y="77.7" fill="#000000" font-family="Verdana" font-size="12">CATEGORIES</text>
	<text x="20" y="102.7" fill="#000000" font-family="Verdana" font-size="12">category_id</text>
	<line x1="20" y1="105" x2="92" y2="105" stroke="#000000" stroke-width="1"/>
	<text x="20" y="119.8" fill="#000000" font-family="Verdana" font-size="12">name</text>
	<text x="20" y="136.8" fill="#000000" font-family="Verdana" font-size="12">description</text>
	<text x="20" y="153.8" fill="#000000" font-family="Verdana" font-size="12">image</text>
</g>
</svg>